<svg width="166" height="36" viewBox="0 0 166 36" fill="none" xmlns="http://www.w3.org/2000/svg">
<path fill-rule="evenodd" clip-rule="evenodd" d="M30.1655 18.1875C30.1655 14.4375 32.976 11.4375 36.9106 11.4375C40.8453 11.4375 43.4684 14.25 43.4684 18.5625V19.3125H33.9128C34.1002 20.8125 35.4117 22.125 37.6601 22.125C38.7843 22.125 40.2832 21.75 41.0326 20.8125L42.5315 23.0625C41.22 24.1875 39.159 24.9375 37.2854 24.9375C33.1634 24.9375 30.1655 22.3125 30.1655 18.1875ZM36.9106 14.0625C34.8496 14.0625 33.9128 15.5625 33.7255 16.875H40.0958C40.0958 15.75 39.159 14.0625 36.9106 14.0625ZM44.9673 18.1875C44.9673 14.25 47.7777 11.4375 51.8997 11.4375C54.5228 11.4375 56.2091 12.5625 56.9585 13.6875L54.7102 15.75C54.1481 14.8125 53.2113 14.4375 51.8997 14.4375C49.8387 14.4375 48.3398 15.9375 48.3398 18.1875C48.3398 20.4375 49.8387 21.9375 51.8997 21.9375C53.0239 21.9375 53.9607 21.375 54.7102 20.4375L56.9585 22.5C56.0217 23.625 54.5228 24.9375 51.8997 24.9375C47.9651 24.9375 44.9673 22.125 44.9673 18.1875ZM68.013 24.5625V16.6875C68.013 14.8125 67.0762 14.25 65.5773 14.25C64.2657 14.25 63.1415 15 62.5794 15.75V24.5625H59.2069V6.75H62.5794V13.3125C63.3289 12.375 65.0152 11.25 67.0762 11.25C69.8866 11.25 71.1982 12.75 71.1982 15.375V24.5625H68.013ZM83.3768 24.5625V16.6875C83.3768 14.8125 82.44 14.25 80.9411 14.25C79.6295 14.25 78.5054 15 77.9433 15.75V24.5625H74.5707V11.625H77.9433V13.3125C78.6927 12.375 80.379 11.25 82.44 11.25C85.2505 11.25 86.7494 12.9375 86.7494 15.375V24.5625H83.3768ZM89.3725 18.1875C89.3725 14.4375 91.9955 11.4375 96.1175 11.4375C100.427 11.4375 103.05 14.625 103.05 18.1875C103.05 21.9375 100.427 24.9375 96.1175 24.9375C91.9955 24.9375 89.3725 21.75 89.3725 18.1875ZM99.4901 18.1875C99.4901 16.125 98.3659 14.4375 96.1175 14.4375C94.0565 14.4375 92.745 16.125 92.745 18.1875C92.745 20.25 93.8692 21.9375 96.1175 21.9375C98.3659 21.9375 99.4901 20.25 99.4901 18.1875ZM25.2941 6.1875L19.6732 9.5625V36H25.2941V6.1875ZM36.9106 4.875V0H0V5.0625H36.9106V4.875ZM121.264 24.5992V11.6351L116.217 24.5992H114.535L109.488 11.6351V24.5992H105.75V6.75H110.984L115.283 18.0232L119.582 6.75H125.002V24.5992H121.264ZM136.217 24.5992V23.284C135.282 24.4113 133.787 24.975 132.105 24.975C130.049 24.975 127.619 23.6598 127.619 20.6536C127.619 17.6474 130.049 16.5201 132.105 16.5201C133.787 16.5201 135.282 17.0838 136.217 18.0232V16.5201C136.217 15.2049 135.095 14.2655 133.413 14.2655C132.105 14.2655 130.796 14.8291 129.675 15.7686L128.366 13.326C129.862 11.8229 131.918 11.2593 133.974 11.2593C136.964 11.2593 139.581 12.3866 139.581 16.1443V24.5992H136.217ZM136.217 21.593V19.9021C135.656 19.1505 134.534 18.7747 133.413 18.7747C132.105 18.7747 130.983 19.5263 130.983 20.6536C130.983 21.9688 132.105 22.5325 133.413 22.5325C134.721 22.7204 135.656 22.3446 136.217 21.593ZM142.946 24.5992V11.6351H146.31V13.326C147.245 12.1987 148.74 11.2593 150.422 11.2593V14.6412H149.487C148.366 14.6412 146.871 15.2049 146.31 16.1443V24.7871H142.946V24.5992ZM161.076 24.5992L157.712 19.5263L156.216 21.2173V24.5992H152.852V6.75H156.216V17.4595L161.076 11.6351H165.188L160.141 17.4595L165.375 24.5992H161.076ZM5.85 36H0.225V25.1822L5.85 21.825V36ZM9.9 36H15.525V15.3L9.9 18.6568V36ZM35.0573 34.6359H32.4361V29.7H31.5V35.3672H35.0573V34.6359ZM39.5507 33.5391V33.3563C39.5507 32.2594 38.8018 31.1625 37.4912 31.1625C36.3679 31.1625 35.4318 32.2594 35.4318 33.3563C35.4318 34.6359 36.3679 35.55 37.6785 35.55C38.2401 35.55 38.8018 35.1844 39.3635 34.8187L38.9891 34.2703C38.6146 34.6359 38.0529 34.8187 37.6785 34.8187C36.7423 34.8187 36.1807 34.2703 36.1807 33.5391H39.5507ZM37.4912 31.7109C38.4274 31.7109 38.8018 32.4422 38.8018 32.9906H36.1807C36.1807 32.4422 36.7423 31.7109 37.4912 31.7109ZM41.423 34.2703C41.423 34.6359 41.6102 34.8187 41.7974 34.8187C41.9847 34.8187 42.1719 34.8187 42.1719 34.6359L42.3591 35.3672C42.2816 35.3672 42.204 35.3986 42.1132 35.4353C41.9847 35.4873 41.8296 35.55 41.6102 35.55C41.0485 35.55 40.6741 35.1844 40.6741 34.6359V32.0766H39.9252V31.3453H40.6741V30.2484H41.423V31.3453H42.3591V32.0766H41.423V34.2703ZM42.9208 30.2484C42.9208 29.8828 43.108 29.7 43.4825 29.7C43.8569 29.7 44.0442 29.8828 44.0442 30.4312C44.0442 30.9797 43.6697 31.5281 43.2953 31.8937L42.9208 31.5281C42.965 31.485 43.0196 31.4418 43.0773 31.3963C43.264 31.2488 43.4825 31.0762 43.4825 30.7969H43.2953C43.108 30.7969 42.9208 30.6141 42.9208 30.2484ZM45.9504 32.891C46.0536 32.9193 46.1677 32.9505 46.2909 32.9906C47.0398 33.1734 47.7887 33.3563 47.7887 34.2703C47.7887 35.0016 47.227 35.55 46.1037 35.55C45.542 35.55 44.7931 35.1844 44.4186 34.8187L44.7931 34.4531C44.9803 34.6359 45.542 35.0016 46.1037 35.0016C46.6653 35.0016 47.0398 34.8187 47.0398 34.4531C47.0398 33.9948 46.7782 33.9195 46.3644 33.8004C46.2831 33.777 46.1959 33.7519 46.1037 33.7219C45.3547 33.5391 44.6058 33.3563 44.6058 32.4422C44.6058 31.7109 45.1675 31.1625 46.1037 31.1625C46.8526 31.1625 47.4142 31.5281 47.9759 31.8937L47.6015 32.4422C47.227 32.0766 46.8526 31.8937 46.2909 31.8937C45.7292 31.8937 45.3547 32.0766 45.3547 32.4422C45.3547 32.7277 45.583 32.7902 45.9504 32.891ZM51.9077 35.3672H50.9715V29.7H51.9077V35.3672ZM53.7799 31.8937C54.1544 31.5281 54.7161 31.1625 55.2777 31.1625C56.2139 31.1625 56.5883 31.7109 56.5883 32.625V35.3672H55.8394V32.8078C55.8394 32.0766 55.465 31.8937 54.9033 31.8937C54.5288 31.8937 53.9672 32.0766 53.7799 32.4422V35.3672H53.031V31.3453H53.7799V31.8937ZM58.6478 31.8937C59.0223 31.5281 59.5839 31.1625 60.1456 31.1625C60.8945 31.1625 61.4562 31.7109 61.4562 32.625V35.3672H60.7073V32.8078C60.7073 32.0766 60.3329 31.8937 59.7712 31.8937C59.3967 31.8937 58.835 32.0766 58.6478 32.4422V35.3672H57.8989V31.3453H58.6478V31.8937ZM64.4518 35.55C65.7624 35.55 66.5113 34.4531 66.5113 33.3563C66.5113 32.2594 65.7624 31.1625 64.4518 31.1625C63.1412 31.1625 62.3923 32.2594 62.3923 33.3563C62.3923 34.6359 63.1412 35.55 64.4518 35.55ZM64.4518 31.8937C65.388 31.8937 65.7624 32.625 65.7624 33.3563C65.7624 34.0875 65.388 34.8187 64.4518 34.8187C63.5157 34.8187 63.1412 34.0875 63.1412 33.3563C63.1412 32.625 63.7029 31.8937 64.4518 31.8937ZM67.6347 31.3453L68.9453 34.4531L70.2558 31.3453H71.0047L69.3197 35.3672H68.5708L66.8858 31.3453H67.6347ZM75.1237 35.3672V32.625C75.1237 31.5281 74.3748 31.1625 73.4387 31.1625C72.6898 31.1625 72.1281 31.5281 71.7537 31.8937L72.1281 32.4422C72.5026 32.0766 72.877 31.8937 73.4387 31.8937C74.0004 31.8937 74.3748 32.0766 74.3748 32.625V33.5391C74.1876 33.1734 73.6259 32.9906 73.0642 32.9906C72.3153 32.9906 71.5664 33.3563 71.5664 34.2703C71.5664 35.1844 72.3153 35.55 73.0642 35.55C73.6259 35.55 74.0004 35.3672 74.3748 35.0016V35.3672H75.1237ZM73.2515 33.3563C73.6259 33.3563 74.0004 33.5391 74.3748 33.7219V34.2703C74.0004 34.6359 73.6259 34.8187 73.2515 34.8187C72.6898 34.8187 72.3153 34.4531 72.3153 34.0875C72.3153 33.7219 72.6898 33.3563 73.2515 33.3563ZM77.1832 34.2703C77.1832 34.6359 77.3704 34.8187 77.5577 34.8187H77.9321L78.1193 35.3672C78.0418 35.3672 77.9642 35.3986 77.8734 35.4353C77.7449 35.4873 77.5898 35.55 77.3704 35.55C76.8088 35.55 76.4343 35.1844 76.4343 34.6359V32.0766H75.6854V31.3453H76.4343V30.2484H77.1832V31.3453H78.1193V32.0766H77.1832V34.2703ZM79.4299 33.5391H82.8V33.3563C82.8 32.0766 82.0511 31.1625 80.7405 31.1625C79.6172 31.1625 78.681 32.2594 78.681 33.3563C78.681 34.6359 79.4299 35.55 80.7405 35.55C81.4894 35.55 82.0511 35.1844 82.6128 34.8187L82.2383 34.2703C81.8639 34.6359 81.3022 34.8187 80.9277 34.8187C79.9916 34.8187 79.4299 34.2703 79.4299 33.5391ZM80.7405 31.7109C81.6766 31.7109 82.0511 32.4422 82.0511 32.9906H79.4299C79.4299 32.4422 79.9916 31.7109 80.7405 31.7109Z" fill="white"/>
</svg>
